<svg x="691.7325" y="438.489" width="238" height="60" viewBox="1.52 -34.68 139.28 35" preserveAspectRatio="none">
    <g transform="matrix(1 0 0 1 0 0)" class="companyNamed7e839d4-2ee0-4878-a6ef-56759999f698">
        <path id="id-d7e839d4-2ee0-4878-a6ef-56759999f698D6z1nYkh7"
            d="M8.44 0L1.52 0L1.52-34.36L15.28-34.36L15.28-27.68L8.44-27.68L8.44-22.20L14.92-22.20L14.92-15.60L8.44-15.60L8.44 0Z M28.48 0.32Q24.32 0.32 22.16-2.22Q20-4.76 20-9.36L20-9.36L20-25.72Q20-30.16 22.16-32.42Q24.32-34.68 28.48-34.68L28.48-34.68Q32.64-34.68 34.80-32.42Q36.96-30.16 36.96-25.72L36.96-25.72L36.96-9.36Q36.96-4.72 34.80-2.20Q32.64 0.32 28.48 0.32L28.48 0.32ZM28.48-6Q29.40-6 29.72-6.80Q30.04-7.60 30.04-9.04L30.04-9.04L30.04-25.84Q30.04-26.96 29.74-27.66Q29.44-28.36 28.52-28.36L28.52-28.36Q26.80-28.36 26.80-25.76L26.80-25.76L26.80-9Q26.80-7.52 27.16-6.76Q27.52-6 28.48-6L28.48-6Z M50.72 0.32Q46.56 0.32 44.40-2.22Q42.24-4.76 42.24-9.36L42.24-9.36L42.24-25.72Q42.24-30.16 44.40-32.42Q46.56-34.68 50.72-34.68L50.72-34.68Q54.88-34.68 57.04-32.42Q59.20-30.16 59.20-25.72L59.20-25.72L59.20-9.36Q59.20-4.72 57.04-2.20Q54.88 0.32 50.72 0.32L50.72 0.32ZM50.72-6Q51.64-6 51.96-6.80Q52.28-7.60 52.28-9.04L52.28-9.04L52.28-25.84Q52.28-26.96 51.98-27.66Q51.68-28.36 50.76-28.36L50.76-28.36Q49.04-28.36 49.04-25.76L49.04-25.76L49.04-9Q49.04-7.52 49.40-6.76Q49.76-6 50.72-6L50.72-6Z M74.60 0L67.72 0L67.72-27.76L63.64-27.76L63.64-34.36L78.68-34.36L78.68-27.76L74.60-27.76L74.60 0Z M90.32 0L83.40 0L83.40-34.36L97.16-34.36L97.16-27.68L90.32-27.68L90.32-22.20L96.80-22.20L96.80-15.60L90.32-15.60L90.32 0Z M110.12 0.32Q105.88 0.32 103.82-2.08Q101.76-4.48 101.76-9.20L101.76-9.20L101.76-34.36L108.44-34.36L108.44-9.48Q108.44-7.84 108.76-6.92Q109.08-6 110.12-6L110.12-6Q111.16-6 111.48-6.90Q111.80-7.80 111.80-9.48L111.80-9.48L111.80-34.36L118.48-34.36L118.48-9.20Q118.48-4.48 116.42-2.08Q114.36 0.32 110.12 0.32L110.12 0.32Z M130.64 0L123.92 0L123.92-34.36L131-34.36L134.16-17.92L134.16-34.36L140.80-34.36L140.80 0L134.08 0L130.64-17.20L130.64 0Z">
        </path>
    </g>
</svg>
